# xmcd CD database file
#
# Track frame offsets:
#	150
#	23868
#	36940
#	56382
#	84781
#	110633
#	127735
#	145853
#	166546
#	177143
#	186108
#	212739
#	233657
#	247864
#	263114
#	282360
#	305092
#	318793
#
# Disc length: 4415 seconds
#
# Revision: 0
# Processed by: cddbd v1.5.2PL0 Copyright (c) Steve Scherf et al.
# Submitted via: CDex 1.79
#
DISCID=e5113d12
DTITLE=Various Artist - Night Ride - Smooth Evening Jazz
DYEAR=2015
DGENRE=Jazz
TTITLE0=Sarah McKenzie - Got To Be This Way
TTITLE1=Catherine Hunter - Comes Love
TTITLE2=Simon Tedeschi - Nice Work If You Can Get It
TTITLE3=Hetty Kate - In The Still Of The Night
TTITLE4=James Morrison - 'Round Midnight
TTITLE5=Judy Bailey - Shuffle Off To Bendigo
TTITLE6=Idea Of North, The - Big Yellow Taxi
TTITLE7=Sarah McKenzie - The Music Is The Magic
TTITLE8=Robert Davi - Too Marvellous For Words
TTITLE9=Grace Knight - Do Right
TTITLE10=Russell Holmes Trio - Fire And Rain
TTITLE11=Michelle Nicolle - If I Only Had A Brain
TTITLE12=James Ryan Trio - Ask Me Now
TTITLE13=Idea Of North, The - Isn't She Lovely
TTITLE14=Paul Grabowsky - Wicked
TTITLE15=Hetty Kate - Cry Me A River
TTITLE16=Gregg Arthur - Route 66
TTITLE17=Robert Davi - Day In, Day Out
EXTD=YEAR: 2015
EXTT0=
EXTT1=
EXTT2=
EXTT3=
EXTT4=
EXTT5=
EXTT6=
EXTT7=
EXTT8=
EXTT9=
EXTT10=
EXTT11=
EXTT12=
EXTT13=
EXTT14=
EXTT15=
EXTT16=
EXTT17=
PLAYORDER=
